<?xml version="1.0" encoding="UTF-8" standalone="no"?><svg xmlns="http://www.w3.org/2000/svg" xmlns:xlink="http://www.w3.org/1999/xlink" contentScriptType="application/ecmascript" contentStyleType="text/css" height="100px" preserveAspectRatio="none" style="width:229px;height:100px;" version="1.1" viewBox="0 0 229 100" width="229px" zoomAndPan="magnify"><defs><filter height="300%" id="fxtvzu5ncj2bj" width="300%" x="-1" y="-1"><feGaussianBlur result="blurOut" stdDeviation="2.0"/><feColorMatrix in="blurOut" result="blurOut2" type="matrix" values="0 0 0 0 0 0 0 0 0 0 0 0 0 0 0 0 0 0 .4 0"/><feOffset dx="4.0" dy="4.0" in="blurOut2" result="blurOut3"/><feBlend in="SourceGraphic" in2="blurOut3" mode="normal"/></filter></defs><g><!--MD5=[4a65e84059005d12693a083370a06717]
       +entity client--><ellipse cx="199" cy="17.5" fill="#FEFECE" filter="url(#fxtvzu5ncj2bj)" rx="8" ry="8" style="stroke: #A80036; stroke-width: 1.5;"/><path d="M199,25.5 L199,52.5 M186,33.5 L212,33.5 M199,52.5 L186,67.5 M199,52.5 L212,67.5 " fill="none" filter="url(#fxtvzu5ncj2bj)" style="stroke: #A80036; stroke-width: 1.5;"/><text fill="#000000" font-family="sans-serif" font-size="14" lengthAdjust="spacingAndGlyphs" textLength="37" x="180.5" y="86.5352">client</text><!--MD5=[4541fb81c80c07473fe4b07432ef0971]
       +entity app--><polygon fill="#FEFECE" filter="url(#fxtvzu5ncj2bj)" points="79,35.5,89,25.5,145,25.5,145,61.9883,135,71.9883,79,71.9883,79,35.5" style="stroke: #000000; stroke-width: 1.5;"/><line style="stroke: #000000; stroke-width: 1.5;" x1="135" x2="144" y1="35.5" y2="26.5"/><line style="stroke: #000000; stroke-width: 1.5;" x1="79" x2="135" y1="35.5" y2="35.5"/><line style="stroke: #000000; stroke-width: 1.5;" x1="135" x2="135" y1="35.5" y2="71.9883"/><text fill="#000000" font-family="sans-serif" font-size="14" lengthAdjust="spacingAndGlyphs" textLength="26" x="94" y="59.0352">app</text><!--MD5=[7468467f3b6b392f1d176d828c753b77]
       +entity db--><path d="M6,36 C6,26 25,26 25,26 C25,26 44,26 44,36 L44,61.4883 C44,71.4883 25,71.4883 25,71.4883 C25,71.4883 6,71.4883 6,61.4883 L6,36 " fill="#FEFECE" filter="url(#fxtvzu5ncj2bj)" style="stroke: #000000; stroke-width: 1.5;"/><path d="M6,36 C6,46 25,46 25,46 C25,46 44,46 44,36 " fill="none" style="stroke: #000000; stroke-width: 1.5;"/><text fill="#000000" font-family="sans-serif" font-size="14" lengthAdjust="spacingAndGlyphs" textLength="18" x="16" y="63.5352">db</text><!--MD5=[73d7329ecfd8ecf321883f71d8e37ce5]
       +link db to app--><path d="M44.03,48.5 C53.9,48.5 63.78,48.5 73.65,48.5 " fill="none" id="db-&gt;app" style="stroke: #A80036; stroke-width: 1.0;"/><polygon fill="#A80036" points="78.81,48.5,69.81,44.5,73.81,48.5,69.81,52.5,78.81,48.5" style="stroke: #A80036; stroke-width: 1.0;"/><!--MD5=[9cecf95ca18500caa5a398892473e215]
       +link app to client--><path d="M145.3,48.5 C155.19,48.5 165.07,48.5 174.95,48.5 " fill="none" id="app-&gt;client" style="stroke: #A80036; stroke-width: 1.0;"/><polygon fill="#A80036" points="180.12,48.5,171.12,44.5,175.12,48.5,171.12,52.5,180.12,48.5" style="stroke: #A80036; stroke-width: 1.0;"/><!--MD5=[55dd84f351159fefa2121b21c80c276f]
       +@startuml Diagram
       +actor client
       +node app
       +database db
       +db -> app
       +app -> client
       +@enduml
       +
       +PlantUML version 1.2020.05(Thu Mar 19 22:17:32 CET 2020)
       +(GPL source distribution)
       +Java Runtime: OpenJDK Runtime Environment
       +JVM: OpenJDK 64-Bit Server VM
       +Java Version: 12+33
       +Operating System: Mac OS X
       +Default Encoding: UTF-8
       +Language: en
       +Country: GB
       +--></g></svg>
